<svg width="1120" height="699" viewBox="0 0 1120 699" fill="none" xmlns="http://www.w3.org/2000/svg">
<g clip-path="url(#clip0)">
<path d="M292.609 426C410.246 426 505.609 330.637 505.609 213C505.609 95.3633 410.246 0 292.609 0C174.972 0 79.6091 95.3633 79.6091 213C79.6091 330.637 174.972 426 292.609 426Z" fill="#F2F2F2"/>
<path d="M0 51.1423C0 128.64 48.6181 191.351 108.701 191.351Z" fill="#2F2E41"/>
<path d="M108.701 191.351C108.701 112.982 162.956 49.567 230.004 49.567Z" fill="#F50057"/>
<path d="M39.3843 58.1677C39.3843 131.782 70.3872 191.351 108.701 191.351Z" fill="#F50057"/>
<path d="M108.701 191.351C108.701 91.2128 171.411 10.1827 248.909 10.1827Z" fill="#2F2E41"/>
<path d="M85.8329 192.339C85.8329 192.339 101.248 191.864 105.894 188.556C110.54 185.248 129.607 181.298 130.76 186.603C131.912 191.909 153.927 212.991 136.522 213.132C119.118 213.272 96.0831 210.421 91.4462 207.596C86.8093 204.772 85.8329 192.339 85.8329 192.339Z" fill="#A8A8A8"/>
<path opacity="0.2" d="M136.833 211.285C119.429 211.425 96.3938 208.574 91.7568 205.749C88.2256 203.598 86.8184 195.88 86.3476 192.319C86.0215 192.333 85.8329 192.339 85.8329 192.339C85.8329 192.339 86.8093 204.772 91.4463 207.596C96.0832 210.421 119.118 213.272 136.523 213.132C141.546 213.091 143.282 211.304 143.186 208.656C142.488 210.256 140.572 211.255 136.833 211.285Z" fill="black"/>
<path d="M198.609 449.94C301.886 449.94 385.609 438.55 385.609 424.5C385.609 410.45 301.886 399.06 198.609 399.06C95.3319 399.06 11.6091 410.45 11.6091 424.5C11.6091 438.55 95.3319 449.94 198.609 449.94Z" fill="#3F3D56"/>
<path opacity="0.1" d="M198.609 445.859C285.318 445.859 355.609 436.296 355.609 424.5C355.609 412.704 285.318 403.141 198.609 403.141C111.9 403.141 41.6091 412.704 41.6091 424.5C41.6091 436.296 111.9 445.859 198.609 445.859Z" fill="black"/>
<path d="M836.609 699C992.906 699 1119.61 681.763 1119.61 660.5C1119.61 639.237 992.906 622 836.609 622C680.313 622 553.609 639.237 553.609 660.5C553.609 681.763 680.313 699 836.609 699Z" fill="#3F3D56"/>
<path d="M310.609 668.627C404.498 668.627 480.609 658.273 480.609 645.5C480.609 632.727 404.498 622.373 310.609 622.373C216.721 622.373 140.609 632.727 140.609 645.5C140.609 658.273 216.721 668.627 310.609 668.627Z" fill="#3F3D56"/>
<path d="M462.609 626C552.609 649 725.609 596 744.609 536" stroke="#2F2E41" stroke-width="2" stroke-miterlimit="10"/>
<path d="M309.609 259C309.609 259 439.609 223 447.609 339C455.609 455 340.609 488 430.609 511" stroke="#2F2E41" stroke-width="2" stroke-miterlimit="10"/>
<path d="M184.011 537.283C184.011 537.283 223.084 526.463 225.488 561.328C227.893 596.192 193.329 606.111 220.379 613.023" stroke="#2F2E41" stroke-width="2" stroke-miterlimit="10"/>
<path d="M778.705 563.24L770.827 613.535C770.827 613.535 732.045 634.138 759.314 634.744C786.582 635.35 915.047 634.744 915.047 634.744C915.047 634.744 939.892 634.744 900.504 612.929L892.626 560.21L778.705 563.24Z" fill="#2F2E41"/>
<path opacity="0.1" d="M753.828 634.198C760.021 628.688 770.827 622.946 770.827 622.946L778.705 572.651L892.626 572.758L900.504 622.34C909.689 627.427 915.379 631.327 918.707 634.318C923.766 633.164 929.295 628.875 900.504 612.929L892.626 560.21L778.705 563.24L770.827 613.535C770.827 613.535 738.239 630.85 753.828 634.198Z" fill="black"/>
<path d="M1073.64 212.689H596.479C586.512 212.689 578.433 220.768 578.433 230.734V552.163C578.433 562.129 586.512 570.208 596.479 570.208H1073.64C1083.61 570.208 1091.69 562.129 1091.69 552.163V230.734C1091.69 220.768 1083.61 212.689 1073.64 212.689Z" fill="#2F2E41"/>
<path d="M1074.42 231.776H595.703V499.613H1074.42V231.776Z" fill="#3F3D56"/>
<path d="M835.06 226.323C836.733 226.323 838.089 224.966 838.089 223.293C838.089 221.62 836.733 220.263 835.06 220.263C833.386 220.263 832.03 221.62 832.03 223.293C832.03 224.966 833.386 226.323 835.06 226.323Z" fill="#F2F2F2"/>
<path d="M1091.69 520.822V552.163C1091.69 554.533 1091.22 556.879 1090.31 559.069C1089.41 561.258 1088.08 563.248 1086.4 564.924C1084.73 566.599 1082.74 567.929 1080.55 568.835C1078.36 569.742 1076.01 570.209 1073.64 570.208H596.479C594.109 570.209 591.762 569.742 589.573 568.835C587.383 567.929 585.393 566.599 583.718 564.924C582.042 563.248 580.713 561.258 579.806 559.069C578.899 556.879 578.433 554.533 578.433 552.163V520.822H1091.69Z" fill="#2F2E41"/>
<path d="M968.978 667.466V673.526H642.968V668.678L643.417 667.466L651.452 645.651H962.312L968.978 667.466Z" fill="#2F2E41"/>
<path d="M1094.44 661.534C1093.84 664.073 1091.6 666.751 1086.54 669.284C1068.36 678.374 1031.39 666.86 1031.39 666.86C1031.39 666.86 1002.91 662.012 1002.91 649.287C1003.71 648.74 1004.55 648.244 1005.41 647.803C1013.05 643.759 1038.39 633.781 1083.33 648.225C1086.64 649.264 1089.59 651.202 1091.87 653.822C1093.69 655.954 1095.12 658.657 1094.44 661.534Z" fill="#2F2E41"/>
<path opacity="0.1" d="M1094.44 661.534C1072.19 670.06 1052.35 670.696 1032 656.559C1021.73 649.432 1012.41 647.669 1005.41 647.802C1013.05 643.759 1038.39 633.781 1083.33 648.225C1086.64 649.264 1089.59 651.202 1091.87 653.822C1093.69 655.953 1095.12 658.657 1094.44 661.534Z" fill="black"/>
<path d="M1066.54 656.559C1070.89 656.559 1074.42 655.473 1074.42 654.135C1074.42 652.796 1070.89 651.711 1066.54 651.711C1062.19 651.711 1058.66 652.796 1058.66 654.135C1058.66 655.473 1062.19 656.559 1066.54 656.559Z" fill="#F2F2F2"/>
<path d="M835.06 557.18C841.418 557.18 846.573 552.026 846.573 545.667C846.573 539.308 841.418 534.154 835.06 534.154C828.701 534.154 823.546 539.308 823.546 545.667C823.546 552.026 828.701 557.18 835.06 557.18Z" fill="#F2F2F2"/>
<path opacity="0.1" d="M968.978 667.466V673.526H642.968V668.678L643.417 667.466H968.978Z" fill="black"/>
<path d="M316.609 159H108.609V401H316.609V159Z" fill="#2F2E41"/>
<path d="M337.609 135H87.6091V221H337.609V135Z" fill="#3F3D56"/>
<path d="M337.609 237H87.6091V323H337.609V237Z" fill="#3F3D56"/>
<path d="M337.609 339H87.6091V425H337.609V339Z" fill="#3F3D56"/>
<path opacity="0.4" d="M287.609 150H271.609V166H287.609V150Z" fill="#F50057"/>
<path opacity="0.8" d="M310.609 150H294.609V166H310.609V150Z" fill="#F50057"/>
<path d="M333.609 150H317.609V166H333.609V150Z" fill="#F50057"/>
<path opacity="0.4" d="M287.609 251H271.609V267H287.609V251Z" fill="#F50057"/>
<path opacity="0.8" d="M310.609 251H294.609V267H310.609V251Z" fill="#F50057"/>
<path d="M333.609 251H317.609V267H333.609V251Z" fill="#F50057"/>
<path opacity="0.4" d="M287.609 352H271.609V368H287.609V352Z" fill="#F50057"/>
<path opacity="0.8" d="M310.609 352H294.609V368H310.609V352Z" fill="#F50057"/>
<path d="M333.609 352H317.609V368H333.609V352Z" fill="#F50057"/>
<path d="M316.609 617C360.24 617 395.609 581.63 395.609 538C395.609 494.37 360.24 459 316.609 459C272.979 459 237.609 494.37 237.609 538C237.609 581.63 272.979 617 316.609 617Z" fill="#2F2E41"/>
<path d="M304.609 600H280.609V643H304.609V600Z" fill="#2F2E41"/>
<path d="M352.609 600H328.609V643H352.609V600Z" fill="#2F2E41"/>
<path d="M300.609 651C311.655 651 320.609 647.642 320.609 643.5C320.609 639.358 311.655 636 300.609 636C289.563 636 280.609 639.358 280.609 643.5C280.609 647.642 289.563 651 300.609 651Z" fill="#2F2E41"/>
<path d="M348.609 650C359.655 650 368.609 646.642 368.609 642.5C368.609 638.358 359.655 635 348.609 635C337.563 635 328.609 638.358 328.609 642.5C328.609 646.642 337.563 650 348.609 650Z" fill="#2F2E41"/>
<path d="M318.609 545C333.521 545 345.609 532.912 345.609 518C345.609 503.088 333.521 491 318.609 491C303.697 491 291.609 503.088 291.609 518C291.609 532.912 303.697 545 318.609 545Z" fill="white"/>
<path d="M318.609 527C323.58 527 327.609 522.971 327.609 518C327.609 513.029 323.58 509 318.609 509C313.639 509 309.609 513.029 309.609 518C309.609 522.971 313.639 527 318.609 527Z" fill="#3F3D56"/>
<path d="M239.976 464.532C233.598 435.965 253.988 407.098 285.52 400.058C317.053 393.017 347.786 410.468 354.164 439.035C360.543 467.603 339.646 478.139 308.114 485.18C276.582 492.221 246.355 493.1 239.976 464.532Z" fill="#F50057"/>
<path d="M390.703 522.244C410.759 513.66 424.833 501.597 422.138 495.301C419.443 489.005 401 490.86 380.945 499.444C360.889 508.028 346.816 520.09 349.511 526.386C352.205 532.682 370.648 530.827 390.703 522.244Z" fill="#2F2E41"/>
<path d="M242.703 575.244C262.759 566.66 276.833 554.597 274.138 548.301C271.443 542.005 253 543.86 232.945 552.444C212.889 561.027 198.816 573.09 201.51 579.386C204.205 585.682 222.648 583.827 242.703 575.244Z" fill="#2F2E41"/>
<path d="M362.609 561C362.609 568.732 342.701 584 320.609 584C298.518 584 277.609 569.732 277.609 562C277.609 554.268 298.518 556 320.609 556C342.701 556 362.609 553.268 362.609 561Z" fill="white"/>
<path d="M807.939 329.768H813.949V336.242H807.939V347H799.871V336.242H778.986L778.754 331.328L799.605 298.656H807.939V329.768ZM787.221 329.768H799.871V309.58L799.273 310.643L787.221 329.768ZM850.805 326.646C850.805 333.597 849.499 338.843 846.887 342.385C844.297 345.904 840.346 347.664 835.033 347.664C829.809 347.664 825.869 345.949 823.213 342.518C820.579 339.064 819.229 333.962 819.162 327.211V318.844C819.162 311.893 820.457 306.68 823.047 303.205C825.659 299.73 829.632 297.992 834.967 297.992C840.257 297.992 844.197 299.686 846.787 303.072C849.399 306.459 850.738 311.528 850.805 318.279V326.646ZM842.736 317.615C842.736 313.077 842.117 309.757 840.877 307.654C839.637 305.529 837.667 304.467 834.967 304.467C832.333 304.467 830.396 305.474 829.156 307.488C827.917 309.48 827.264 312.602 827.197 316.852V327.809C827.197 332.324 827.828 335.689 829.09 337.902C830.352 340.116 832.333 341.223 835.033 341.223C837.623 341.223 839.538 340.204 840.777 338.168C842.017 336.109 842.67 332.9 842.736 328.539V317.615ZM885.236 329.768H891.246V336.242H885.236V347H877.168V336.242H856.283L856.051 331.328L876.902 298.656H885.236V329.768ZM864.518 329.768H877.168V309.58L876.57 310.643L864.518 329.768ZM726.559 427H718.158L696.609 392.701V427H688.209V378.656H696.609L718.225 413.088V378.656H726.559V427ZM734.195 408.705C734.195 405.186 734.893 402.02 736.287 399.209C737.682 396.376 739.641 394.206 742.164 392.701C744.688 391.174 747.587 390.41 750.863 390.41C755.711 390.41 759.64 391.971 762.65 395.092C765.683 398.213 767.321 402.352 767.564 407.51L767.598 409.402C767.598 412.944 766.911 416.109 765.539 418.898C764.189 421.688 762.241 423.846 759.695 425.373C757.172 426.9 754.25 427.664 750.93 427.664C745.861 427.664 741.799 425.982 738.744 422.617C735.712 419.23 734.195 414.726 734.195 409.104V408.705ZM742.264 409.402C742.264 413.099 743.027 415.999 744.555 418.102C746.082 420.182 748.207 421.223 750.93 421.223C753.652 421.223 755.766 420.16 757.271 418.035C758.799 415.91 759.562 412.8 759.562 408.705C759.562 405.075 758.777 402.197 757.205 400.072C755.656 397.947 753.542 396.885 750.863 396.885C748.229 396.885 746.137 397.936 744.588 400.039C743.038 402.12 742.264 405.241 742.264 409.402ZM784.531 382.342V391.074H790.873V397.051H784.531V417.105C784.531 418.478 784.797 419.474 785.328 420.094C785.882 420.691 786.855 420.99 788.25 420.99C789.18 420.99 790.12 420.88 791.072 420.658V426.9C789.235 427.41 787.464 427.664 785.76 427.664C779.562 427.664 776.463 424.244 776.463 417.404V397.051H770.553V391.074H776.463V382.342H784.531ZM816.838 427V397.051H811.359V391.074H816.838V387.787C816.838 383.803 817.945 380.726 820.158 378.557C822.372 376.387 825.471 375.303 829.455 375.303C830.872 375.303 832.377 375.502 833.971 375.9L833.771 382.209C832.886 382.032 831.857 381.943 830.684 381.943C826.832 381.943 824.906 383.924 824.906 387.887V391.074H832.211V397.051H824.906V427H816.838ZM836.594 408.705C836.594 405.186 837.291 402.02 838.686 399.209C840.08 396.376 842.039 394.206 844.562 392.701C847.086 391.174 849.986 390.41 853.262 390.41C858.109 390.41 862.038 391.971 865.049 395.092C868.081 398.213 869.719 402.352 869.963 407.51L869.996 409.402C869.996 412.944 869.31 416.109 867.938 418.898C866.587 421.688 864.639 423.846 862.094 425.373C859.57 426.9 856.648 427.664 853.328 427.664C848.259 427.664 844.197 425.982 841.143 422.617C838.11 419.23 836.594 414.726 836.594 409.104V408.705ZM844.662 409.402C844.662 413.099 845.426 415.999 846.953 418.102C848.48 420.182 850.605 421.223 853.328 421.223C856.051 421.223 858.165 420.16 859.67 418.035C861.197 415.91 861.961 412.8 861.961 408.705C861.961 405.075 861.175 402.197 859.604 400.072C858.054 397.947 855.94 396.885 853.262 396.885C850.628 396.885 848.536 397.936 846.986 400.039C845.437 402.12 844.662 405.241 844.662 409.402ZM898.584 423.48C896.215 426.27 892.851 427.664 888.49 427.664C884.594 427.664 881.639 426.524 879.625 424.244C877.633 421.964 876.637 418.666 876.637 414.35V391.074H884.705V414.25C884.705 418.81 886.598 421.09 890.383 421.09C894.301 421.09 896.946 419.684 898.318 416.873V391.074H906.387V427H898.783L898.584 423.48ZM922.092 391.074L922.324 395.225C924.98 392.015 928.467 390.41 932.783 390.41C940.265 390.41 944.072 394.693 944.205 403.26V427H936.137V403.725C936.137 401.445 935.639 399.762 934.643 398.678C933.669 397.571 932.064 397.018 929.828 397.018C926.574 397.018 924.15 398.49 922.557 401.434V427H914.488V391.074H922.092ZM950.945 408.771C950.945 403.238 952.229 398.799 954.797 395.457C957.365 392.092 960.807 390.41 965.123 390.41C968.93 390.41 972.007 391.738 974.354 394.395V376H982.422V427H975.117L974.719 423.281C972.306 426.203 969.085 427.664 965.057 427.664C960.851 427.664 957.442 425.971 954.83 422.584C952.24 419.197 950.945 414.593 950.945 408.771ZM959.014 409.469C959.014 413.121 959.711 415.977 961.105 418.035C962.522 420.072 964.525 421.09 967.115 421.09C970.413 421.09 972.826 419.618 974.354 416.674V401.334C972.87 398.456 970.48 397.018 967.182 397.018C964.57 397.018 962.555 398.058 961.139 400.139C959.722 402.197 959.014 405.307 959.014 409.469Z" fill="white"/>
</g>
<defs>
<clipPath id="clip0">
<rect width="1119.61" height="699" fill="white"/>
</clipPath>
</defs>
</svg>
