<svg width="30" height="30" viewBox="0 0 30 30" fill="none" xmlns="http://www.w3.org/2000/svg">
<g id="radio_button_checked_24px">
<path id="icon/toggle/radio_button_checked_24px" fill-rule="evenodd" clip-rule="evenodd" d="M15 2.5C8.1 2.5 2.5 8.1 2.5 15C2.5 21.9 8.1 27.5 15 27.5C21.9 27.5 27.5 21.9 27.5 15C27.5 8.1 21.9 2.5 15 2.5ZM15 25C9.47499 25 4.99999 20.525 4.99999 15C4.99999 9.475 9.47499 5 15 5C20.525 5 25 9.475 25 15C25 20.525 20.525 25 15 25ZM8.74999 15C8.74999 11.5482 11.5482 8.75 15 8.75C18.4518 8.75 21.25 11.5482 21.25 15C21.25 18.4518 18.4518 21.25 15 21.25C11.5482 21.25 8.74999 18.4518 8.74999 15Z" fill="#EB46C0"/>
</g>
</svg>
