<svg width="1076" height="647" viewBox="0 0 1076 647" fill="none" xmlns="http://www.w3.org/2000/svg">
<g clip-path="url(#clip0)">
<path d="M74.3507 607.007L137.782 515.868L74.3185 616.92L74.2815 627.289C69.7581 627.251 65.2803 627.104 60.8483 626.848C60.8281 624.494 66.2195 494.949 65.9903 492.605C66.3032 492.516 66.4788 480.353 66.6029 479.821L0.335716 380.227L66.674 470.395L66.8719 473.06L70.8074 372.412L13.8436 269.345L71.2579 354.727C71.2792 353.358 73.9754 146.705 74.0019 145.43C74.0182 146.107 75.2556 309.885 75.2647 310.575L129.744 244.652L75.2125 324.74L74.934 414.82L125.49 327.712C62.3966 454.745 76.3595 410.291 74.748 478.152L148.184 356.86L74.6852 495.625L74.3507 607.007Z" fill="#D0CDE1"/>
<path d="M1044.75 619.38L1071.18 581.4L1044.73 623.511L1044.72 627.832C1042.83 627.816 1040.97 627.755 1039.12 627.648C1039.11 626.667 1041.36 572.683 1041.26 571.706C1041.39 571.669 1041.47 566.6 1041.52 566.378L1013.9 524.875L1041.55 562.45L1041.63 563.561L1043.27 521.619L1019.53 478.668L1043.46 514.249C1043.47 513.678 1044.59 427.561 1044.6 427.029C1044.61 427.312 1045.12 495.562 1045.13 495.849L1067.83 468.378L1045.11 501.753L1044.99 539.291L1066.06 502.991C1039.77 555.929 1045.58 537.404 1044.91 565.683L1075.52 515.138L1044.89 572.964L1044.75 619.38Z" fill="#D0CDE1"/>
<path d="M536 646.899C832.025 646.899 1072 637.497 1072 625.899C1072 614.301 832.025 604.899 536 604.899C239.975 604.899 0 614.301 0 625.899C0 637.497 239.975 646.899 536 646.899Z" fill="#D0CDE1"/>
<path d="M796 248.031H184V612.901H796V248.031Z" fill="#3F3D56"/>
<path d="M335.46 248.031C334.834 286.426 319.144 323.037 291.772 349.969C264.4 376.901 227.54 391.997 189.14 392.001C187.42 392.001 185.71 391.971 184 391.911V248.031H335.46Z" fill="#EB46C0"/>
<path d="M519.937 612.9H461.73C463.92 606.944 467.885 601.803 473.09 598.172C478.294 594.54 484.487 592.593 490.834 592.593C497.18 592.593 503.373 594.54 508.578 598.172C513.782 601.803 517.747 606.944 519.937 612.9V612.9Z" fill="#EB46C0"/>
<path d="M796 424.171V547.07C780.222 546.299 765.345 539.488 754.451 528.049C743.557 516.609 737.48 501.418 737.48 485.621C737.48 469.824 743.557 454.632 754.451 443.192C765.345 431.753 780.222 424.942 796 424.171V424.171Z" fill="#EB46C0"/>
<path d="M683.57 380.615H297.49C287.532 380.615 279.459 388.688 279.459 398.646V398.646C279.459 408.604 287.532 416.677 297.49 416.677H683.57C693.529 416.677 701.601 408.604 701.601 398.646C701.601 388.688 693.529 380.615 683.57 380.615Z" fill="white"/>
<path d="M683.57 451.679H297.49C287.532 451.679 279.459 459.752 279.459 469.71V469.71C279.459 479.669 287.532 487.741 297.49 487.741H683.57C693.529 487.741 701.601 479.669 701.601 469.71C701.601 459.752 693.529 451.679 683.57 451.679Z" fill="white"/>
<path d="M683.57 522.743H571.628C561.67 522.743 553.597 530.816 553.597 540.774C553.597 550.733 561.67 558.806 571.628 558.806H683.57C693.529 558.806 701.601 550.733 701.601 540.774C701.601 530.816 693.529 522.743 683.57 522.743Z" fill="white"/>
<path d="M893.052 112.12C893.052 112.12 909.881 118.664 910.815 140.168C911.75 161.671 906.141 221.507 906.141 221.507C906.141 221.507 926.709 251.424 910.815 259.839C894.922 268.253 893.052 226.181 893.052 226.181L874.353 137.363C874.353 137.363 885.572 111.185 893.052 112.12Z" fill="#A0616A"/>
<path d="M721.025 181.304C721.025 181.304 680.823 207.482 678.953 186.914C677.083 166.346 691.107 85.9416 691.107 85.9416C691.107 85.9416 692.977 51.3491 712.61 59.7635C732.244 68.178 707.001 97.1608 707.001 97.1608L709.805 162.606L728.504 161.671L721.025 181.304Z" fill="#A0616A"/>
<path d="M785.535 205.613C785.535 205.613 662.124 159.801 668.669 213.092C675.213 266.383 707.001 333.698 707.001 333.698L718.22 351.462H741.593L726.634 255.164C726.634 255.164 779.925 285.082 795.819 280.407C795.819 280.407 816.388 417.842 823.867 428.126C831.346 438.41 844.435 562.756 844.435 562.756L856.59 577.715H879.963V367.356C879.963 367.356 920.165 236.465 889.312 229.921C858.459 223.376 785.535 205.613 785.535 205.613Z" fill="#2F2E41"/>
<path d="M715.415 339.308C715.415 339.308 709.805 329.023 700.456 339.308C691.107 349.592 668.668 361.746 668.668 361.746C668.668 361.746 620.052 372.965 659.319 382.315C698.586 391.664 703.261 382.315 703.261 382.315C703.261 382.315 709.805 384.184 715.415 386.054C721.025 387.924 757.487 381.38 757.487 375.77C757.487 370.16 745.108 336.636 740.078 341.712C735.049 346.787 715.415 339.308 715.415 339.308Z" fill="#2F2E41"/>
<path d="M858.381 568.461C858.381 568.461 844.596 557.108 841.352 560.352C838.109 563.595 821.08 585.489 821.08 585.489C821.08 585.489 775.67 620.357 817.026 626.034C858.381 631.71 855.948 616.303 855.948 616.303H868.923C870.544 616.303 892.438 606.572 891.627 602.518C890.817 598.464 881.086 565.402 877.842 567.742C874.599 570.082 858.381 568.461 858.381 568.461Z" fill="#2F2E41"/>
<path d="M733.179 76.5923C750.735 76.5923 764.966 62.3605 764.966 44.8047C764.966 27.2488 750.735 13.017 733.179 13.017C715.623 13.017 701.391 27.2488 701.391 44.8047C701.391 62.3605 715.623 76.5923 733.179 76.5923Z" fill="#A0616A"/>
<path d="M755.617 41.0649C755.617 41.0649 779.925 61.6334 796.754 61.6334C813.583 61.6334 772.446 99.9656 772.446 99.9656L735.984 67.243L755.617 41.0649Z" fill="#A0616A"/>
<path d="M764.966 99.9656L764.238 92.5999C764.238 92.5999 782.73 59.7636 788.34 56.9588C793.949 54.154 797.689 54.154 797.689 54.154C797.689 54.154 816.388 34.5204 836.956 44.8047C857.525 55.0889 906.141 120.534 906.141 120.534C906.141 120.534 871.548 123.339 876.223 150.452C876.223 150.452 910.815 239.27 901.466 240.205C892.117 241.14 864.069 234.596 835.086 247.685C806.103 260.774 793.014 252.359 793.014 252.359L778.055 203.743C778.055 203.743 750.008 187.849 750.942 173.825L710.273 192.056L714.013 157.464L738.788 128.948C738.788 128.948 734.114 125.209 764.966 99.9656Z" fill="#575A89"/>
<path d="M703.938 48.2413C702.675 49.6453 701.091 50.7238 699.322 51.385C697.512 51.8956 695.231 51.2694 694.509 49.5322L695.853 47.7828L691.824 45.2789L693.58 43.2188L690.334 39.6944L692.896 37.6621L688.019 34.174C694.34 23.8594 701.176 13.4156 711.156 6.57794C721.135 -0.25968 735.08 -2.68932 745.304 3.77814C750.612 7.13596 754.365 12.4654 757.372 17.9799C763.418 29.0701 768.748 39.8806 769.535 52.4875C765.737 48.7888 760.192 46.7045 756.393 43.0058C754.712 41.2211 752.806 39.6613 750.724 38.3651C746.752 36.1249 741.998 35.9267 737.551 34.9161C733.811 34.0664 731.385 32.3808 728.555 29.9711C725.19 27.1045 725.053 28.2129 721.654 31.4403C715.753 37.0446 709.847 42.6449 703.938 48.2413Z" fill="#2F2E41"/>
</g>
<defs>
<clipPath id="clip0">
<rect width="1075.52" height="646.899" fill="white"/>
</clipPath>
</defs>
</svg>
